<svg width="384" height="384" viewBox="0 0 384 384" fill="none" xmlns="http://www.w3.org/2000/svg">
<path d="M288 192C288 154.347 266.24 121.813 234.667 106.133V153.28L287.04 205.653C287.68 201.173 288 196.587 288 192Z" fill="white"/>
<path d="M341.333 192C341.333 212.053 336.96 230.933 329.813 248.32L362.133 280.64C376 254.08 384 224 384 192C384 100.693 320.107 24.32 234.667 4.90698V48.96C296.32 67.307 341.333 124.373 341.333 192Z" fill="white"/>
<path d="M192 21.333L147.413 65.92L192 110.507V21.333Z" fill="white"/>
<path d="M27.2 0L0 27.2L100.8 128H0V256H85.333L192 362.667V219.2L282.773 309.973C268.48 320.96 252.373 329.813 234.666 335.146V379.2C263.999 372.48 290.773 359.04 313.279 340.587L356.8 384L384 356.8L192 164.8L27.2 0Z" fill="white"/>
</svg>
