<svg width="427" height="427" viewBox="0 0 427 427" fill="none" xmlns="http://www.w3.org/2000/svg">
<g clip-path="url(#clip0_5:123)">
<path d="M416.8 269.44L371.787 234.133C372.64 227.306 373.28 220.373 373.28 213.333C373.28 206.293 372.64 199.36 371.787 192.533L416.907 157.226C420.96 154.026 422.134 148.266 419.467 143.573L376.8 69.653C374.133 65.066 368.587 63.146 363.787 65.066L310.667 86.506C299.68 78.079 287.627 70.933 274.614 65.493L266.614 8.96C265.653 3.947 261.28 0 255.947 0H170.614C165.281 0 160.907 3.947 160.054 8.96L152.054 65.493C139.041 70.933 126.987 77.973 116.001 86.506L62.8811 65.066C58.0811 63.253 52.5341 65.066 49.8681 69.653L7.20008 143.573C4.53308 148.16 5.70708 153.92 9.76008 157.226L54.7731 192.533C53.9201 199.36 53.2801 206.293 53.2801 213.333C53.2801 220.373 53.9201 227.306 54.7731 234.133L9.76008 269.44C5.70708 272.64 4.53308 278.4 7.20008 283.093L49.8671 357.013C52.5341 361.6 58.0801 363.52 62.8801 361.6L116 340.16C126.987 348.587 139.04 355.733 152.053 361.173L160.053 417.706C160.906 422.719 165.28 426.666 170.613 426.666H255.946C261.279 426.666 265.653 422.719 266.506 417.706L274.506 361.173C287.519 355.733 299.573 348.693 310.559 340.16L363.679 361.6C368.479 363.413 374.026 361.6 376.692 357.013L419.359 283.093C422.027 278.507 420.853 272.747 416.8 269.44ZM213.28 288C172 288 138.613 254.613 138.613 213.333C138.613 172.053 172 138.667 213.28 138.667C254.56 138.667 287.947 172.054 287.947 213.334C287.947 254.614 254.56 288 213.28 288Z" fill="white"/>
</g>
<defs>
<clipPath id="clip0_5:123">
<rect width="426.667" height="426.667" fill="white"/>
</clipPath>
</defs>
</svg>
