<svg width="105" height="25" viewBox="0 0 105 25" fill="none" xmlns="http://www.w3.org/2000/svg">
<path d="M35.5 24.5V0.5H69.5V24.5H35.5Z" fill="white" stroke="#030303"/>
<path d="M35 0H0V25H35V0Z" fill="#030303"/>
<path d="M105 0H70V25H105V0Z" fill="#030303"/>
<path d="M56.4482 19H48.0635V17.8311L52.4932 12.9092C53.1494 12.165 53.6006 11.5615 53.8467 11.0986C54.0986 10.6299 54.2246 10.1465 54.2246 9.64844C54.2246 8.98047 54.0225 8.43262 53.6182 8.00488C53.2139 7.57715 52.6748 7.36328 52.001 7.36328C51.1924 7.36328 50.5625 7.59473 50.1113 8.05762C49.666 8.51465 49.4434 9.15332 49.4434 9.97363H47.8174C47.8174 8.7959 48.1953 7.84375 48.9512 7.11719C49.7129 6.39062 50.7295 6.02734 52.001 6.02734C53.1904 6.02734 54.1309 6.34082 54.8223 6.96777C55.5137 7.58887 55.8594 8.41797 55.8594 9.45508C55.8594 10.7148 55.0566 12.2148 53.4512 13.9551L50.0234 17.6729H56.4482V19Z" fill="#030303"/>
<path d="M82 12H92V14H82V12Z" fill="white"/>
<path d="M86 18L86 8L88 8L88 18H86Z" fill="white"/>
<rect x="13" y="12" width="10" height="2.00236" fill="white"/>
</svg>
